<svg width="1200" height="360" viewBox="0 0 1200 360" fill="none" xmlns="http://www.w3.org/2000/svg">
  <defs>
    <linearGradient id="bg" x1="0" y1="0" x2="1200" y2="360" gradientUnits="userSpaceOnUse">
      <stop stop-color="#07111F"/>
      <stop offset="0.48" stop-color="#102A43"/>
      <stop offset="1" stop-color="#0F766E"/>
    </linearGradient>
    <radialGradient id="glow" cx="0" cy="0" r="1" gradientUnits="userSpaceOnUse" gradientTransform="translate(870 80) rotate(134) scale(380 280)">
      <stop stop-color="#93C5FD" stop-opacity="0.72"/>
      <stop offset="1" stop-color="#93C5FD" stop-opacity="0"/>
    </radialGradient>
    <filter id="shadow" x="-20%" y="-20%" width="140%" height="140%">
      <feDropShadow dx="0" dy="18" stdDeviation="22" flood-color="#000000" flood-opacity="0.28"/>
    </filter>
  </defs>
  <rect width="1200" height="360" rx="34" fill="url(#bg)"/>
  <rect width="1200" height="360" rx="34" fill="url(#glow)"/>
  <g opacity="0.18">
    <path d="M89 296C246 193 383 263 522 166C662 69 833 141 984 51C1058 7 1124 3 1171 15" stroke="#E0F2FE" stroke-width="2"/>
    <path d="M41 102C209 172 334 92 485 132C650 176 717 284 873 241C982 211 1058 145 1165 168" stroke="#CCFBF1" stroke-width="2"/>
  </g>
  <g filter="url(#shadow)">
    <circle cx="214" cy="176" r="42" fill="#0EA5E9"/>
    <circle cx="383" cy="101" r="34" fill="#F97316"/>
    <circle cx="525" cy="222" r="38" fill="#22C55E"/>
    <circle cx="721" cy="124" r="46" fill="#A3E635"/>
    <circle cx="912" cy="215" r="40" fill="#38BDF8"/>
    <circle cx="1042" cy="116" r="32" fill="#FDE68A"/>
    <path d="M251 161L352 116M409 121L494 199M563 206L682 143M765 145L878 196M944 193L1017 137" stroke="#E0F2FE" stroke-width="8" stroke-linecap="round"/>
  </g>
  <g fill="#F8FAFC" font-family="Inter, ui-sans-serif, system-ui, -apple-system, BlinkMacSystemFont, 'Segoe UI', sans-serif">
    <text x="76" y="92" font-size="24" font-weight="700" opacity="0.82">THEORY MAP</text>
    <text x="74" y="151" font-size="54" font-weight="800">Theories of Graph Neural Networks</text>
    <text x="78" y="205" font-size="25" opacity="0.86">Expressivity • Logic • Geometry • Generalization • Scientific ML</text>
    <text x="80" y="282" font-size="21" opacity="0.76">A curated reading guide from WL tests to graph transformers and open research problems</text>
  </g>
  <g fill="#0F172A" font-family="Inter, ui-sans-serif, system-ui, -apple-system, BlinkMacSystemFont, 'Segoe UI', sans-serif" font-size="15" font-weight="800">
    <text x="185" y="181">WL</text>
    <text x="349" y="106">Logic</text>
    <text x="489" y="227">Geo</text>
    <text x="685" y="129">Limits</text>
    <text x="879" y="220">SciML</text>
    <text x="1011" y="121">2026</text>
  </g>
</svg>
